<svg width="152" height="120" viewBox="0 0 152 120" fill="none" xmlns="http://www.w3.org/2000/svg">
<circle cx="144" cy="3.0293" r="3" transform="rotate(-180 144 3.0293)" fill="white"/>
<circle cx="140.5" cy="35.5" r="5.5" transform="rotate(-180 140.5 35.5)" fill="white"/>
<circle cx="4" cy="51" r="4" fill="white"/>
<circle cx="29" cy="61" r="3" fill="white"/>
<circle opacity="0.5" cx="50.5" cy="60.5" r="5.5" fill="white"/>
<circle opacity="0.5" cx="78" cy="46" r="3" fill="white"/>
<circle cx="43" cy="39" r="2" fill="white"/>
<circle cx="6" cy="78" r="2" fill="white"/>
<circle cx="75.5" cy="68.5" r="1.5" fill="white"/>
<circle cx="139.5" cy="60.5" r="1.5" fill="white"/>
<circle cx="127.5" cy="92.5" r="1.5" fill="white"/>
<circle cx="59.5" cy="83.5" r="1.5" fill="white"/>
<circle cx="111" cy="85" r="3" fill="white"/>
<circle opacity="0.7" cx="119.5" cy="54.5" r="3.5" fill="white"/>
<circle cx="97.5" cy="63.5" r="4.5" fill="white"/>
<circle cx="18" cy="95" r="4" fill="white"/>
<circle opacity="0.5" cx="29" cy="117" r="3" fill="white"/>
<circle opacity="0.5" cx="54.5" cy="107.5" r="5.5" fill="white"/>
<circle cx="82" cy="93" r="3" fill="white"/>
<circle cx="39" cy="89" r="2" fill="white"/>
<circle cx="83.5" cy="114.5" r="1.5" fill="white"/>
<circle cx="144" cy="113" r="3" fill="white"/>
<circle opacity="0.5" cx="146.5" cy="81.5" r="5.5" fill="white"/>
<circle cx="109.5" cy="107.5" r="4.5" fill="white"/>
<circle opacity="0.5" cx="8" cy="8" r="7" fill="white"/>
<circle cx="19" cy="30" r="3" fill="white"/>
<circle opacity="0.5" cx="54.5" cy="14.5" r="5.5" fill="white"/>
<circle cx="81" cy="3" r="3" fill="white"/>
<circle cx="32" cy="4" r="2" fill="white"/>
<circle cx="67.5" cy="23.5" r="1.5" fill="white"/>
<circle opacity="0.5" cx="105" cy="27" r="3" fill="white"/>
<circle opacity="0.5" cx="3" cy="111" r="3" fill="white"/>
<circle opacity="0.5" cx="107.5" cy="6.5" r="5.5" fill="white"/>
<circle cx="124.5" cy="16.5293" r="1.5" fill="white"/>
</svg>
